<svg xmlns="http://www.w3.org/2000/svg" viewBox="0 0 256 256" enable-background="new 0 0 256 256"><style type="text/css">.st0{fill:#4F9AD4;}</style><path class="st0" d="M41.5 110.1s-1.8-4.4-1.8-9.8l1.8-9.8c-.3 0-36.8 9.8-36.8 9.8s36.5 9.8 36.8 9.8zm173-19.5s1.8 4.4 1.8 9.8l-1.8 9.8c.3 0 36.8-9.8 36.8-9.8s-36.5-9.8-36.8-9.8z"/><circle class="st0" cx="90.2" cy="99.8" r="11"/><path class="st0" d="M195.4 86.2c1.4 0 2.6 1.2 2.6 2.6v23.2c0 1.4-1.2 2.6-2.6 2.6h-134.8c-1.4 0-2.6-1.2-2.6-2.6v-23.3c0-1.4 1.2-2.6 2.6-2.6h134.8m0-13.2h-134.8c-8.7 0-15.8 7.1-15.8 15.8v23.3c0 8.7 7.1 15.8 15.8 15.8h134.7c8.7 0 15.8-7.1 15.8-15.8v-23.3c.1-8.7-7-15.8-15.7-15.8zm-68.4 94.6c-20 0-36.8 30.1-36.8 65.8 0 4.1.2 8.1.6 11.9 10.2 3.2 22.7 5.1 36.2 5.1s25.9-1.9 36.2-5.1c.4-3.9.6-7.9.6-11.9.1-35.6-16.8-65.8-36.8-65.8zm-22.2 64.3c0 2.4-1.9 4.4-4.3 4.4s-4.4-1.9-4.4-4.4v-15.2c0-2.4 1.9-4.4 4.4-4.4 2.4 0 4.3 1.9 4.3 4.4v15.2zm17.5 0c0 2.4-1.9 4.4-4.4 4.4s-4.4-1.9-4.4-4.4v-15.2c0-2.4 1.9-4.4 4.4-4.4 2.4 0 4.4 1.9 4.4 4.4v15.2zm17.5 0c0 2.4-1.9 4.4-4.4 4.4-2.4 0-4.4-1.9-4.4-4.4v-15.2c0-2.4 1.9-4.4 4.4-4.4s4.4 1.9 4.4 4.4v15.2zm17.5 0c0 2.4-1.9 4.4-4.4 4.4-2.4 0-4.4-1.9-4.4-4.4v-15.2c0-2.4 2-4.4 4.4-4.4 2.4 0 4.4 1.9 4.4 4.4v15.2zm-93-115.3v11.3h91c1.7 0 3.1 1.4 3.1 3.1 0 1.7-1.4 3.1-3.1 3.1h-91v88.5c0 7.5 6.7 14.4 17.5 19.4-.2-2.8-.3-5.6-.3-8.5 0-41.8 20-74.5 45.5-74.5s45.5 32.7 45.5 74.5c0 2.9-.1 5.7-.3 8.5 10.8-5 17.5-11.9 17.5-19.4v-106h-125.4zm62.7-57c-2.2 0-4-1.8-4-4s1.8-4 4-4h62.2c-.7-2.2-1.5-4.3-2.4-6.4h-37c-3.7 0-6.6-3-6.6-6.6s3-6.6 6.6-6.6h29.4c-12-16.2-30.9-26.3-52.2-26.3-33.4 0-61 24.9-65.1 59h130.2c-.2-1.7-.5-3.4-.8-5l-64.3-.1zm4.6-27.9c3.8 0 6.9 3.1 6.9 6.9 0 3.8-3.1 6.9-6.9 6.9-3.8 0-6.9-3.1-6.9-6.9 0-3.8 3.1-6.9 6.9-6.9z"/></svg>